<?xml version="1.0" encoding="UTF-8" standalone="no"?>
<!-- Created with Inkscape (http://www.inkscape.org/) -->

<svg
   version="1.1"
   id="svg1"
   width="2528"
   height="1696"
   viewBox="0 0 2528 1696"
   sodipodi:docname="logoIluminImoveisSVG.svg"
   inkscape:version="1.4.2 (f4327f4, 2025-05-13)"
   xmlns:inkscape="http://www.inkscape.org/namespaces/inkscape"
   xmlns:sodipodi="http://sodipodi.sourceforge.net/DTD/sodipodi-0.dtd"
   xmlns="http://www.w3.org/2000/svg"
   xmlns:svg="http://www.w3.org/2000/svg">
  <defs
     id="defs1" />
  <sodipodi:namedview
     id="namedview1"
     pagecolor="#505050"
     bordercolor="#eeeeee"
     borderopacity="1"
     inkscape:showpageshadow="0"
     inkscape:pageopacity="0"
     inkscape:pagecheckerboard="0"
     inkscape:deskcolor="#505050"
     inkscape:zoom="0.33645942"
     inkscape:cx="1220.058"
     inkscape:cy="1127.9221"
     inkscape:window-width="1920"
     inkscape:window-height="1009"
     inkscape:window-x="1912"
     inkscape:window-y="-8"
     inkscape:window-maximized="1"
     inkscape:current-layer="g1" />
  <g
     inkscape:groupmode="layer"
     inkscape:label="Image"
     id="g1">
    <path
       style="fill:#000000"
       d="m 213.74952,1257.6021 c -0.20781,-0.825 -0.45061,-108.375 -0.53956,-238.9999 -0.1319,-193.69555 0.0783,-237.79675 1.13964,-239.10835 0.71575,-0.8846 7.15137,-5.5315 14.30137,-10.3264 7.15,-4.7949 19.525,-13.4331 27.5,-19.1959 12.72504,-9.1952 35.24392,-24.9888 84.74899,-59.4385 18.20189,-12.6664 45.01079,-31.3761 76.56056,-53.4309 14.16211,-9.9 33.60472,-23.4 43.20579,-30 9.60107,-6.6 21.24399,-14.6389 25.87309,-17.8643 l 8.41658,-5.8643 17.8475,12.1385 c 9.8161,6.6762 27.8673,18.9901 40.1138,27.3643 12.2465,8.3742 28.2113,19.2758 35.4772,24.2258 7.266,4.95 21.3211,14.5833 31.2337,21.4073 9.9125,6.8241 22.0728,15.1804 27.0228,18.5697 4.95,3.3893 18,12.3979 29,20.0191 11,7.6211 39.35,26.9116 63,42.8676 23.65,15.956 48.625,33.1106 55.5,38.1212 6.875,5.0106 15.2,10.9541 18.5,13.2077 3.3,2.2536 7.7258,5.6071 9.8352,7.4524 l 3.8352,3.355 0.5103,223.25005 0.5103,223.2499 -7.8455,0.11 c -4.315,0.061 -142.2883,0.173 -306.6073,0.25 -264.80945,0.1241 -298.80477,-0.03 -299.13966,-1.36 z m 108.77441,-30.2249 c 5.37594,-5.5247 50.58625,-53.0617 91.2248,-95.9195 17.54624,-18.5045 42.89839,-45.0545 56.33812,-59 13.43975,-13.9456 29.40343,-30.5305 35.47483,-36.8555 35.1948,-36.66462 94.8499,-98.28125 119.0843,-123.00005 12.6718,-12.925 27.7568,-28.3872 33.5223,-34.3604 22.0703,-22.8655 74.9225,-74.6386 76.1727,-74.6174 0.7205,0.012 2.4135,0.8704 3.7624,1.907 l 2.4523,1.8847 -9.5166,9.843 c -90.4477,93.5498 -92.8594,96.057 -102.2924,106.3431 -6.7374,7.3467 -40.2356,42.22573 -70.11,73.00003 -36.9632,38.07652 -94.62012,98.07852 -99.93527,103.99992 -3.20899,3.575 -11.98722,12.8 -19.50718,20.5 -7.51995,7.7 -23.13817,24.125 -34.70715,36.5 -11.56897,12.375 -24.05727,25.3251 -27.75176,28.778 -3.6945,3.4528 -8.87703,8.8731 -11.51674,12.045 -2.6397,3.172 -10.09007,11.5041 -16.55636,18.5159 -6.4663,7.0118 -11.56536,12.9403 -11.33125,13.1744 0.31433,0.3144 45.83019,0.7466 54.47937,0.5174 1.1566,-0.031 24.64015,-26.8882 35.80019,-40.9438 3.23729,-4.0773 9.97074,-12.234 14.96322,-18.126 12.84869,-15.1638 26.51588,-31.6125 29.51854,-35.5262 1.40728,-1.8342 10.23051,-12.4699 19.60729,-23.6348 9.3767,-11.165 20.1803,-24.1249 24.0081,-28.7999 3.8277,-4.675 9.983,-12.1 13.6784,-16.5 3.6954,-4.4 16.6753,-19.925 28.8442,-34.4999 44.6244,-53.44782 51.5267,-61.65652 58.4396,-69.50005 3.8779,-4.4 12.5348,-14.525 19.2375,-22.5 6.7026,-7.975 14.787,-17.4646 17.9651,-21.0879 3.1782,-3.6234 10.9535,-12.7947 17.2785,-20.3806 6.325,-7.586 14.65,-17.4855 18.5,-21.9988 3.85,-4.5134 11.95,-14.0097 18,-21.1028 6.05,-7.0932 15.95,-18.5377 22,-25.4322 6.05,-6.8946 12.2243,-14.1018 13.7206,-16.0161 2.6998,-3.454 2.7418,-3.4677 5.5,-1.7941 1.5287,0.9276 2.7794,2.373 2.7794,3.2121 0,0.8391 -2.5557,4.58 -5.6793,8.313 -3.1237,3.7331 -10.2307,12.4124 -15.7935,19.2874 -5.5627,6.875 -15.4591,19.025 -21.992,27 -6.5329,7.975 -15.4009,18.86 -19.7066,24.189 -12.7165,15.7384 -28.0412,34.3774 -29.5146,35.8978 -0.7533,0.7772 -8.3321,9.6455 -16.8418,19.7073 -8.5097,10.0617 -17.4972,20.68203 -19.9722,23.60053 -4.1718,4.9194 -17.036,20.2859 -39.3739,47.03272 -5.0194,6.01 -12.0688,14.335 -15.6655,18.5 -3.5967,4.165 -12.0383,14.3226 -18.7592,22.5726 -6.7209,8.25 -17.9532,21.8367 -24.9606,30.1927 -7.0075,8.3559 -16.7908,20.0468 -21.7408,25.9796 -4.95,5.9329 -11.27408,13.2712 -14.05358,16.3074 -2.7795,3.0361 -5.8408,6.7783 -6.8029,8.3158 -0.9621,1.5376 -2.738,3.2654 -3.9464,3.8397 -1.20842,0.5742 -3.7525,3.4813 -5.65352,6.4601 -1.90102,2.9787 -6.17602,8.209 -9.5,11.6227 -3.32398,3.4137 -9.09137,10.2736 -12.81641,15.2443 -3.72505,4.9708 -9.88314,12.6377 -13.68464,17.0377 -25.07376,29.0213 -28.12129,32.8333 -26.86822,33.6077 0.70889,0.4382 13.34998,0.8248 28.09131,0.8593 l 26.80242,0.063 2.43044,-2.6225 c 1.33674,-1.4423 5.23821,-6.7365 8.66994,-11.7648 3.43178,-5.0283 12.11018,-17.0599 19.28556,-26.7369 7.1753,-9.677 16.7724,-22.952 21.3269,-29.5 4.5545,-6.548 14.2026,-20.0054 21.4403,-29.9054 7.2377,-9.9 20.1613,-27.9683 28.7191,-40.1518 8.5578,-12.1835 19.5032,-27.7085 24.3231,-34.5 19.4097,-27.3496 46.9859,-66.05152 59.7366,-83.83752 7.425,-10.35723 20.504,-28.65923 29.0645,-40.67103 27.5397,-38.6426 37.3245,-52.3558 42.58,-59.675 2.8294,-3.9406 7.6221,-10.7646 10.6504,-15.1646 5.876,-8.5378 19.6505,-27.0107 21.997,-29.5 0.7777,-0.825 2.2069,-2.7375 3.176,-4.25 2.0765,-3.2407 3.4796,-3.4229 6.6417,-0.8623 l 2.3312,1.8876 -3.7938,5.3624 c -2.0866,2.9492 -12.6228,18.4123 -23.4139,34.3623 -10.791,15.95 -21.9351,32.15 -24.7646,36 -2.8294,3.85 -8.7306,12.175 -13.1136,18.5 -13.0049,18.7666 -35.754,51.16743 -50.2779,71.60883 -13.4647,18.95092 -30.9914,43.72232 -38.4614,54.35972 -19.8359,28.2468 -45.6223,64.2263 -50.1911,70.0314 -1.948,2.475 -7.2279,10 -11.7331,16.7222 -12.711,18.9657 -35.7225,51.2173 -40.5052,56.7697 -2.3726,2.7545 -7.0377,9.2831 -10.3669,14.5081 -3.3292,5.225 -8.92548,13.3767 -12.43618,18.115 -3.5107,4.7382 -6.3831,9.1123 -6.3831,9.7202 0,0.793 7.4158,0.9488 26.24998,0.5515 14.4375,-0.3045 26.7326,-0.6963 27.3224,-0.8707 0.5898,-0.1743 4.8233,-6.7742 9.4078,-14.6665 4.5844,-7.8922 10.4526,-17.9495 13.0402,-22.3495 2.5877,-4.4 6.4073,-11.15 8.4881,-15 2.0808,-3.85 7.4829,-13.075 12.0048,-20.5 4.5219,-7.425 11.9487,-20.025 16.5041,-28 4.5553,-7.975 13.9809,-24.175 20.9456,-36 6.9647,-11.825 15.0765,-25.775 18.0262,-31 5.2973,-9.3837 13.7981,-23.9459 36.1925,-61.9999 6.3115,-10.72502 12.9883,-22.20002 14.8372,-25.50002 1.8489,-3.3 6.5765,-11.40003 10.5057,-18.00003 3.9292,-6.6 11.7919,-20.1 17.4727,-30 5.6808,-9.9 11.9876,-20.7 14.015,-24 2.0275,-3.3 7.1826,-12.075 11.4559,-19.5 11.6503,-20.2427 30.5819,-51.2406 32.6247,-53.4185 1.7696,-1.8865 1.8672,-1.8737 5.8533,0.7642 2.2296,1.4755 4.0538,3.0656 4.0538,3.5336 0,0.468 -0.8991,1.9939 -1.9979,3.3909 -1.0988,1.3969 -5.4357,8.5451 -9.6374,15.8848 -4.2018,7.3398 -13.3608,23.02 -20.3534,34.845 -6.9926,11.825 -16.2184,27.575 -20.5018,35 -4.2835,7.425 -11.2787,19.35 -15.5452,26.5 -4.2664,7.15 -10.6533,18.17503 -14.1931,24.50003 -5.4745,9.7818 -21.2291,36.93392 -39.7463,68.50002 -2.5811,4.3999 -7.6657,12.8281 -11.299,18.7293 -3.6333,5.9012 -10.1957,17.1512 -14.5832,25 -4.3874,7.8488 -12.1769,21.3223 -17.3099,29.941 -5.1331,8.6188 -15.1828,25.8383 -22.3328,38.2657 -11.4853,19.9626 -22.4641,38.777 -38.7104,66.3383 -2.6826,4.5509 -4.6588,8.6283 -4.3914,9.0608 0.2673,0.4326 56.4246,0.7591 124.7939,0.7256 l 124.3079,-0.061 0.3074,-31 c 0.169,-17.05 -0.1712,-77.125 -0.7561,-133.5 -0.5848,-56.3749 -1.3605,-133.76015 -1.7237,-171.96705 l -0.6603,-69.4671 -3.5837,-3.695 c -3.3409,-3.4447 -38.243,-27.7471 -59.4151,-41.3708 -5.1284,-3.3 -11.0893,-7.3849 -13.2465,-9.0774 -3.6304,-2.8486 -45.3059,-31.4213 -101.9874,-69.9226 -12.9553,-8.8 -37.3655,-25.4262 -54.2449,-36.9471 -16.8793,-11.5208 -38.9656,-26.5254 -49.0806,-33.3435 -20.8036,-14.0229 -18.0464,-13.5182 -29.15858,-5.3369 -7.008,5.1596 -42.61784,30.1074 -63.45052,44.4526 -7.15,4.9234 -14.575,10.1859 -16.5,11.6944 -1.925,1.5086 -8.675,6.2856 -15,10.6157 -6.325,4.33 -16.45,11.355 -22.5,15.611 -20.2816,14.2677 -52.90968,37.023 -62.5,43.5885 -5.225,3.577 -13.55,9.4906 -18.5,13.1413 -4.95,3.6507 -15.075,10.7676 -22.50001,15.8153 -7.425,5.0477 -14.81286,10.2373 -16.41747,11.5326 l -2.91747,2.3549 -0.40276,144.1606 c -0.22153,79.28835 -0.13306,144.16055 0.19659,144.16055 0.32965,0 5.64875,-3.5675 11.82024,-7.9278 11.80013,-8.3371 29.37879,-20.2713 77.22088,-52.4254 15.95,-10.7198 35.075,-23.64622 42.5,-28.72542 7.425,-5.0791 26.55,-18.0864 42.5,-28.9051 38.24375,-25.94023 48.61833,-33.01203 69.50002,-47.37443 22.24418,-15.2996 47.70608,-32.4801 95.49998,-64.4392 20.9,-13.9755 38.2678,-25.8397 38.5951,-26.3648 0.6795,-1.09 -0.2156,-5.0915 -11.1475,-49.8378 -4.367,-17.875 -9.9156,-40.6 -12.3303,-50.5 -2.4146,-9.9 -4.2207,-18.1832 -4.0134,-18.4071 0.2073,-0.2239 1.3651,0.034 2.5729,0.5728 2.7259,1.2163 3.5757,4.4167 16.4183,61.8343 10.3428,46.2413 12.1444,53.5 13.2788,53.5 0.4027,0 2.6207,-1.3889 4.9291,-3.0865 4.6435,-3.4149 4.9155,-4.6004 3.2075,-13.9799 -0.5441,-2.9885 -1.8918,-16.9086 -2.9946,-30.9336 -1.1029,-14.025 -2.2908,-28.5375 -2.6398,-32.25 -0.5526,-5.8782 -0.4201,-6.75 1.0261,-6.75 2.5653,0 1.8736,-5.5611 7.2142,58 0.9011,10.725 1.7979,19.6793 1.9929,19.8985 0.4494,0.5053 7.9517,-4.6646 9.5317,-6.5684 0.6523,-0.786 1.3705,-4.6693 1.5961,-8.6296 0.2256,-3.9603 0.9395,-17.0633 1.5865,-29.1178 0.7113,-13.2519 1.5877,-22.0542 2.2168,-22.2635 0.5723,-0.1904 1.9079,0.2882 2.9682,1.0634 1.8952,1.3858 1.8719,1.8609 -1.3785,28.1254 -1.8895,15.2681 -2.9313,27.0908 -2.4312,27.5909 0.5001,0.5001 2.5732,-0.2516 4.8381,-1.7543 7.9517,-5.2758 7.9753,-5.3219 11.4943,-22.3466 3.7403,-18.095 4.1726,-19.2216 6.488,-16.9068 1.4367,1.4363 1.4441,1.9715 0.076,5.5 -1.6975,4.3789 -6.5957,21.7228 -6.5957,23.3546 0,0.5798 0.3988,1.0542 0.8861,1.0542 1.3973,0 13.0805,-7.9087 18.945,-12.8245 l 5.331,-4.4686 3.6625,1.7465 3.6625,1.7465 -2.9935,2.4318 c -1.6465,1.3375 -12.6686,9.0159 -24.4936,17.0632 -11.825,8.0472 -30.275,20.6558 -41,28.0191 -10.725,7.3633 -26.25,17.8876 -34.5,23.3875 -30.6434,20.4284 -86.2395,58.1957 -171.49995,116.50263 -15.675,10.7197 -39.525,26.93 -53,36.02302 -13.475,9.093 -33.05,22.3834 -43.5,29.5342 -10.45,7.1508 -22.96981,15.5523 -27.8218,18.6701 -4.85199,3.1176 -12.72699,8.4646 -17.5,11.882 -4.77301,3.4174 -14.38651,10.0827 -21.36334,14.8117 -6.97684,4.729 -14.51434,9.9233 -16.75001,11.5428 l -4.06491,2.9445 v 26.9348 c 0,16.4946 0.37951,27.1692 0.97911,27.5398 0.53851,0.3328 4.47601,-2.2625 8.75,-5.7673 4.27399,-3.5048 15.6459,-12.5272 25.2709,-20.0499 24.12279,-18.8536 38.57629,-30.2666 51.5,-40.6662 29.80164,-23.9812 43.835,-35.037 52.63271,-41.4652 5.29799,-3.8711 15.27832,-11.5384 22.17852,-17.0384 6.9002,-5.5 20.11548,-15.9409 29.36729,-23.20192 9.25182,-7.2611 23.57148,-18.5306 31.82148,-25.0433 8.25,-6.5128 19.72502,-15.40853 25.5,-19.76823 5.775,-4.3597 15.3014,-11.7652 21.1699,-16.4567 5.8685,-4.6914 15.0935,-11.9687 20.5,-16.1717 5.4065,-4.203 16.3551,-12.7713 24.3301,-19.0406 7.975,-6.2693 18.1,-14.0673 22.5,-17.3289 4.4,-3.2616 13.4,-10.2338 20,-15.4939 6.6,-5.26 13.1899,-10.4481 14.6443,-11.5292 7.2956,-5.4232 43.0476,-33.1514 55.3557,-42.9323 7.7,-6.119 16.475,-12.8537 19.5,-14.966 3.025,-2.1123 8.5748,-6.3356 12.3329,-9.3852 6.7224,-5.4551 6.8756,-5.5188 9.4737,-3.9424 1.4524,0.8813 2.7809,2.0228 2.9522,2.5368 0.4083,1.2247 -21.7235,18.9776 -65.6273,52.6424 -6.3973,4.9054 -16.4199,12.7804 -22.2725,17.5 -5.8525,4.7196 -16.1635,12.8561 -22.9132,18.0811 -23.5087,18.198 -71.0459,55.6967 -93.0954,73.4362 -21.50748,17.30343 -60.05881,47.98403 -68.02458,54.13655 -4.2208,3.26 -14.7958,11.4277 -23.5,18.1504 -8.7042,6.7228 -18.017,14.1201 -20.69512,16.4385 -6.03038,5.2205 -44.73155,36.1779 -70.71947,56.5693 -10.67618,8.377 -22.0853,16.8338 -25.35362,18.7929 -3.26831,1.959 -9.79331,7.2654 -14.5,11.7918 -4.70668,4.5265 -11.32967,10.0347 -14.71775,12.2405 -5.44664,3.5461 -13.31048,10.1279 -25.62043,21.4438 l -3.80747,3.5 -0.0971,16 c -0.20296,33.4358 0.15823,46.5 1.2856,46.5 0.60524,0 9.94274,-8.473 20.75001,-18.8289 10.80725,-10.3558 28.86108,-27.3433 40.11961,-37.75 11.25853,-10.4066 25.71607,-23.8711 32.12787,-29.9211 6.4118,-6.05 16.77527,-15.5953 23.02994,-21.2118 28.29456,-25.4075 32.87211,-29.6344 32.87211,-30.3544 0,-0.4221 6.62235,-6.5424 14.71634,-13.6006 8.09398,-7.0583 20.13747,-18.0082 26.7633,-24.3332 6.62583,-6.325 26.21598,-24.2623 43.53368,-39.8607 34.81078,-31.35482 68.12828,-61.62355 80.50608,-73.13925 4.4338,-4.125 13.6683,-12.4128 20.521,-18.4173 6.8528,-6.0045 16.0596,-14.1577 20.4596,-18.1182 4.4,-3.9605 11.825,-10.6448 16.5,-14.8539 4.675,-4.2092 17.0768,-15.181 27.5595,-24.3818 10.4828,-9.2008 26.4122,-23.2538 35.3987,-31.2288 8.9866,-7.975 21.9546,-19.3194 28.8179,-25.2098 12.4031,-10.645 12.4956,-10.701 15.2878,-9.2571 4.7043,2.4326 4.5645,3.4689 -1.1961,8.869 -6.4075,6.0064 -30.3765,27.0046 -42.7043,37.4113 -4.7649,4.0224 -12.2635,10.8427 -16.6635,15.1563 -4.4,4.3135 -11.8888,11.1475 -16.6417,15.1865 -9.2502,7.861 -27.5564,24.2228 -47.9352,42.8438 -6.922,6.325 -23.3485,21.175 -36.5032,33 -13.1547,11.825 -27.7432,25.11223 -32.4188,29.52713 -7.4701,7.0536 -16.7439,15.3604 -47.78048,42.79832 -9.68154,8.559 -36.35946,33.1257 -49.6486,45.7196 -5.53961,5.2498 -12.09702,11.2625 -14.57202,13.3616 -6.40397,5.4312 -14.60819,13.0647 -31.19171,29.0218 -7.96141,7.6607 -15.22795,14.1925 -16.14786,14.5152 -0.9199,0.3227 -7.01676,5.8674 -13.54857,12.3215 -7.54617,7.4564 -12.63882,11.7348 -13.96826,11.7348 -1.2623,0 -2.67062,1.0909 -3.55032,2.75 -0.80194,1.5125 -5.19169,5.9 -9.755,9.75 -4.56331,3.85 -13.05182,11.5 -18.86338,17 -5.81155,5.5 -21.08835,19.675 -33.94845,31.5 l -23.38202,21.5 12.92779,0.5 c 7.11028,0.275 21.86321,0.6238 32.78428,0.7751 l 19.8565,0.2751 z m 946.62707,4.2844 c -16.3739,-3.467 -28.0784,-10.7055 -36.5839,-22.6249 -15.1843,-21.2789 -13.3591,-46.5943 4.7556,-65.959 5.1348,-5.4891 7.905,-7.4408 16.2588,-11.4547 13.2878,-6.3845 18.2791,-7.4493 35.0695,-7.4813 16.272,-0.031 21.5439,1.0237 33.5,6.7019 14.6285,6.9473 25.8723,20.6305 29.4602,35.8516 6.1747,26.1951 -7.3141,51.5522 -32.7195,61.5085 -14.2076,5.5679 -33.4558,6.906 -49.7407,3.4579 z m 39.2309,-19.2714 c 9.76,-4.635 14.6393,-9.1518 18.8519,-17.4511 3.1828,-6.2708 3.4172,-7.3892 3.4172,-16.3058 0,-8.8017 -0.2649,-10.1113 -3.2867,-16.2496 -7.7664,-15.7756 -25.3518,-23.7086 -46.3051,-20.8887 -15.9704,2.1493 -26.9079,9.4744 -32.7478,21.932 -2.2956,4.8969 -2.6604,6.9778 -2.6604,15.1751 0,8.1973 0.3648,10.2782 2.6604,15.1751 7.3514,15.6819 21.2061,23.1148 41.9416,22.5013 9.7567,-0.2887 11.2019,-0.5987 18.1289,-3.8883 z m 570.7691,20.5458 c -14.1066,-2.2218 -29.6687,-7.7607 -32.9171,-11.7161 -1.2484,-1.52 -1.017,-2.5526 1.9432,-8.6717 1.8481,-3.8203 3.7323,-6.9461 4.187,-6.9461 0.4546,0 2.5052,1.0308 4.5568,2.2906 15.9801,9.813 42.627,13.0525 55.6215,6.762 5.3296,-2.58 7.4394,-5.2349 8.2808,-10.4203 0.5063,-3.1194 0.1471,-4.0084 -2.7957,-6.9198 -3.6882,-3.649 -9.5023,-5.7244 -28.3765,-10.1294 -25.1692,-5.8742 -32.603,-9.385 -38.9285,-18.3852 -2.3633,-3.3626 -3.0633,-5.5583 -3.3856,-10.6196 -1.2777,-20.0655 15.2106,-32.8204 44.333,-34.2949 16.4528,-0.833 36.9455,3.1851 43.4686,8.5231 l 2.0695,1.6935 -3.5954,6.75 c -1.9775,3.7125 -3.8082,6.75 -4.0683,6.75 -0.2601,0 -2.1425,-0.8288 -4.1831,-1.8418 -8.0512,-3.9966 -16.2843,-5.6082 -28.7809,-5.6336 -11.486,-0.023 -12.3571,0.1219 -17.982,2.9986 -6.6013,3.376 -8.4108,5.9888 -8.4326,12.1759 -0.026,7.3377 4.0876,9.2313 37.4614,17.2453 7.1368,1.7138 15.2908,4.1757 18.12,5.471 11.81,5.4068 18.0486,14.9638 17.1419,26.2599 -1.2216,15.2182 -12.558,24.9806 -32.8272,28.2694 -6.0874,0.9877 -25.5544,1.2328 -30.9108,0.3892 z m -959.00002,-1.2155 -3.5,-0.6184 -0.2588,-52.6396 c -0.2045,-41.6067 0,-52.7256 1,-53.0496 0.6923,-0.2254 5.6463,-0.2317 11.0088,-0.014 l 9.75,0.3961 v 52.7868 52.7868 l -2.25,0.603 c -2.7199,0.7289 -10.9445,0.5977 -15.75,-0.2513 z m 214.62032,-0.6654 c -0.3412,-0.8891 -0.6203,-16.6548 -0.6203,-35.0348 0,-18.9211 -0.3871,-33.4182 -0.8922,-33.4182 -0.4908,0 -8.4385,11.5053 -17.6617,25.5673 -9.2232,14.062 -18.0022,26.887 -19.509,28.5 -2.2534,2.4123 -3.5467,2.9327 -7.2885,2.9327 -5.5705,0 -6.3065,-0.8062 -23.7376,-26 -17.9444,-25.9356 -20.9179,-30 -21.9482,-30 -0.5579,0 -1.0426,13.6382 -1.1995,33.75 l -0.2633,33.75 -9.75,0.2862 c -5.3625,0.1574 -9.811,-0.068 -9.8855,-0.5 -0.075,-0.4324 -0.2235,-24.0986 -0.331,-52.5915 -0.1856,-49.1868 -0.1035,-51.8545 1.6247,-52.7793 2.2465,-1.2024 16.2884,0.3804 18.3179,2.0648 1.3268,1.1011 9.528,12.8476 35.1126,50.2912 6.0988,8.9257 11.6738,16.2286 12.389,16.2286 0.7151,0 11.4752,-15.3 23.9113,-34 l 22.611,-34 h 9.5 9.5 v 53 53 l -9.6297,0.2848 c -8.1168,0.24 -9.7271,0.031 -10.25,-1.3318 z m 317.0757,0.4367 c -0.9922,-0.5772 -13.3519,-24.301 -27.4661,-52.7196 -14.1142,-28.4186 -25.8083,-51.9503 -25.9869,-52.2928 -0.6223,-1.1932 3.325,-1.5093 13.4795,-1.0796 l 10.2225,0.4327 2.4128,4.1348 c 1.327,2.2741 5.6406,11.3321 9.5858,20.1288 3.9451,8.7966 10.6796,22.5216 14.9653,30.5 4.2858,7.9783 8.846,17.1022 10.1338,20.2753 1.2877,3.1732 2.6658,5.6482 3.0623,5.5 0.7542,-0.2817 8.5672,-15.8213 28.4165,-56.5193 l 11.8274,-24.25 h 10.8255 c 5.9541,0 10.8256,0.1632 10.8256,0.3627 0,0.6837 -13.7529,29.1521 -31.3728,64.9414 -9.695,19.6923 -17.6272,36.2298 -17.6272,36.75 0,0.5203 -0.9,1.8459 -2,2.9459 -1.7009,1.7009 -3.3085,1.9955 -10.75,1.9696 -4.8125,-0.017 -9.5618,-0.5027 -10.554,-1.0799 z m 133.8632,0.2061 c -0.696,-1.1261 -0.8495,-104.8171 -0.1568,-105.9378 0.4923,-0.7966 46.3475,-0.9687 82.3476,-0.3092 l 8.25,0.1512 v 7.393 c 0,5.819 -0.3368,7.5223 -1.5818,8 -0.87,0.3339 -16.395,0.607 -34.5,0.607 h -32.9182 v 13.9858 13.9857 l 31.25,0.2643 31.25,0.2642 v 7.5 7.5 l -31.276,0.2643 -31.2759,0.2643 0.2759,15.2357 0.276,15.2357 34.4136,0.2633 c 23.3638,0.1788 34.8427,0.6195 35.75,1.3725 0.8596,0.7134 1.3364,3.3846 1.3364,7.4866 v 6.3776 l -14.75,0.046 c -8.1125,0.025 -29.029,0.2209 -46.4812,0.435 -17.4521,0.2141 -31.9465,0.041 -32.2096,-0.3848 z m 167.1075,-0.7625 c -0.3667,-0.3666 -0.6667,-24.2166 -0.6667,-53 v -52.3333 h 11 11 v 53 53 h -10.3333 c -5.6834,0 -10.6334,-0.3 -11,-0.6667 z M 1276.151,1114.8333 c 0,-0.4228 4.3956,-5.1478 9.7679,-10.5 l 9.7679,-9.7312 h 10.1731 c 5.5952,0 10.4173,0.3952 10.7158,0.8782 0.6024,0.9747 -18.0821,15.9121 -23.125,18.4874 -3.2908,1.6806 -17.2997,2.3815 -17.2997,0.8656 z m -383.00002,-48.7319 v -4.5007 l 714.25002,0.2507 714.25,0.2507 0.3075,4.25 0.3075,4.25 H 1607.7085 893.15098 Z m 478.87922,-56.4894 c -32.9767,-3.1539 -60.5246,-14.25492 -75.7411,-30.52142 -10.8782,-11.6288 -17.2178,-24.62953 -20.9628,-42.98843 -2.9214,-14.3215 -3.1317,-20.0362 -3.6998,-100.5 -0.2816,-39.875 -0.9161,-74.231 -1.4102,-76.3467 -0.4941,-2.1156 -1.9219,-4.9363 -3.1731,-6.268 -2.5391,-2.7028 -10.3803,-5.3781 -15.8237,-5.399 -7.4944,-0.029 -8.0685,-0.5518 -8.0685,-7.3529 v -6.1334 l 57.25,0.052 57.25,0.052 0.2988,3.5042 c 0.1644,1.9274 -0.1332,4.6406 -0.6612,6.0295 -0.8602,2.2625 -1.8109,2.6455 -9.138,3.6817 -9.8641,1.395 -12.7468,2.6726 -15.6029,6.9157 -4.1225,6.1245 -4.4717,12.3055 -5.0716,89.7645 -0.6185,79.8692 -0.4102,84.1792 4.732,97.923 2.8586,7.6402 10.1379,16.988 17.3862,22.32673 7.9594,5.8623 11.646,7.6744 22.2343,10.9284 8.1613,2.5081 10.1713,2.7155 26.8224,2.7666 16.1779,0.05 18.7548,-0.1818 25.4569,-2.2864 23.0918,-7.2513 33.7202,-18.19053 39.7424,-40.90463 2.2997,-8.6738 2.6385,-12.1896 3.0602,-31.7537 0.6029,-27.9678 -1.5738,-134.51 -2.872,-140.5779 -2.0764,-9.7054 -8.0517,-13.5693 -22.8875,-14.8 l -7.5,-0.6221 -0.2969,-6.2191 -0.2969,-6.219 43.2969,-0.281 c 23.8133,-0.1545 43.8594,-0.1203 44.5469,0.076 0.7967,0.2276 1.25,2.2682 1.25,5.6276 0,3.0205 -0.5336,5.6942 -1.25,6.2629 -0.6875,0.5458 -4.2669,1.2224 -7.9541,1.5036 -8.7379,0.6664 -12.6259,2.9471 -15.7959,9.2657 -2.8431,5.6671 -2.7315,0.1908 -2.1896,107.4832 0.283,56.0265 -0.2433,63.9085 -5.4741,81.9766 -4.4294,15.2997 -12.9119,28.91853 -24.6849,39.63183 -6.5212,5.9342 -24.9018,15.63742 -35.6514,18.82042 -13.1751,3.9013 -40.9432,6.1283 -57.1208,4.581 z m 910.3595,-7.6282 c -2.6063,-2.68492 -11.0387,-12.46222 -18.7387,-21.72742 -18.8804,-22.71833 -35.9868,-42.89863 -54,-63.70343 -8.25,-9.5286 -18.788,-21.8531 -23.4177,-27.3878 -4.6297,-5.5346 -11.3257,-13.213 -14.88,-17.063 -3.5542,-3.85 -9.1892,-10.375 -12.5223,-14.5 -3.333,-4.125 -9.2639,-11.1 -13.1798,-15.5 -3.9159,-4.4 -11.3353,-12.95 -16.4875,-19 -16.3818,-19.2364 -20.3715,-23.5427 -21.0882,-22.7619 -0.6945,0.7567 -0.4428,7.9298 2.536,72.2619 3.475,75.0513 5.3511,98.52513 8.4309,105.48743 2.6164,5.9147 9.1421,9.2319 22.6086,11.4925 l 10,1.6786 0.3105,4.8103 c 0.1708,2.6456 -0.056,5.17682 -0.5042,5.62492 -0.4481,0.4481 -21.7378,0.8783 -47.3105,0.9561 l -46.4958,0.1414 v -5.77872 -5.7786 l 7.2305,-1.2183 c 10.8292,-1.8247 16.0516,-4.7141 18.6413,-10.3138 2.0528,-4.4388 2.1274,-5.9305 2.1045,-42.10183 -0.025,-39.4687 -2.8426,-138.2227 -4.5168,-158.3077 -1.0957,-13.1451 -3.4039,-19.3641 -8.9049,-23.993 -3.5325,-2.9723 -4.6495,-3.3828 -13.7721,-5.0616 l -6.7825,-1.2481 -0.5949,-5.4448 c -0.3271,-2.9947 -0.4131,-5.7823 -0.191,-6.1948 0.2222,-0.4125 16.7749,-0.75 36.7839,-0.75 h 36.38 l 7.311,8.6822 c 4.021,4.7752 11.361,13.2157 16.311,18.7567 4.95,5.541 12.3627,14.1215 16.4726,19.0678 4.1099,4.9463 16.9408,20.0183 28.513,33.4933 21.7481,25.324 35.7183,41.8411 65.1269,77 21.8596,26.1338 24.0639,28.6203 24.7664,27.9378 0.3183,-0.3091 0.1343,-10.2091 -0.4089,-22 -0.5432,-11.7908 -1.2181,-32.6878 -1.4997,-46.4378 -0.2817,-13.75 -1.3565,-39.758 -2.3884,-57.7955 -1.8558,-32.4378 -1.9055,-32.8395 -4.5518,-36.8383 -3.4438,-5.2041 -8.7117,-7.5244 -19.9924,-8.8062 -4.8468,-0.5508 -8.9841,-1.1731 -9.194,-1.383 -0.2099,-0.2098 -0.4856,-2.7973 -0.6126,-5.75 l -0.2311,-5.3683 46.7382,-0.1042 c 45.1891,-0.1006 46.7584,-0.041 47.345,1.8076 0.8004,2.5218 -0.4574,9.0365 -1.925,9.9703 -0.637,0.4053 -2.539,0.7439 -4.2267,0.7523 -5.3702,0.027 -13.4845,3.0369 -17.0875,6.3389 -5.6493,5.1771 -6.3063,10.5743 -6.764,55.5646 -0.3783,37.1886 0.6777,130.1564 1.9493,171.61183 0.3826,12.47 0.2448,20.53082 -0.3658,21.41002 -0.699,1.0065 -4.0139,1.5449 -11.5827,1.8816 l -10.6033,0.4716 z m -581.1928,0.7344 c -2.8337,-0.7904 -5.6659,-6.16462 -18.6976,-35.47842 -4.612,-10.37433 -11.4954,-25.44933 -15.2965,-33.50003 -3.801,-8.0507 -11.3922,-24.5376 -16.8691,-36.6376 -5.477,-12.1 -16.3194,-35.725 -24.0943,-52.5 -7.7749,-16.775 -14.5375,-31.4 -15.0281,-32.5 -4.0774,-9.1434 -11.3452,-23.5 -11.8965,-23.5 -0.7583,0 -1.7754,105.7269 -1.4653,152.3288 0.1289,19.3781 0.6039,31.05753 1.3558,33.33583 1.9403,5.8791 6.4411,10.0884 12.7769,11.9496 15.6086,4.5849 19.1688,6.7661 19.1688,11.7439 v 3.21292 l -47.4487,-0.035 c -46.5876,-0.035 -47.4584,-0.072 -47.9863,-2.03552 -0.7906,-2.9407 -0.6522,-6.8143 0.297,-8.3109 0.4572,-0.721 4.0623,-1.9797 8.0114,-2.797 13.6666,-2.8286 19.9251,-7.1386 22.0537,-15.1876 2.5066,-9.47853 5.2382,-45.62773 7.6096,-100.70453 2.6635,-61.8587 3.4662,-93.7211 2.6107,-103.637 -1.3287,-15.4032 -4.2701,-18.5561 -19.6474,-21.0602 l -8,-1.3028 v -6 -6 l 5.25,0.039 c 2.8875,0.021 22.0134,0.1337 42.5019,0.25 l 37.2519,0.2115 10.4275,22.25 c 5.7351,12.2375 18.493,39.125 28.3508,59.75 26.7821,56.0351 27.9958,58.5896 39.9115,84 6.0608,12.925 11.4131,23.9189 11.8938,24.4308 0.5156,0.549 2.1456,-1.9119 3.9741,-6 1.705,-3.8119 6.1681,-13.6808 9.9182,-21.9308 3.75,-8.25 9.5181,-21.075 12.818,-28.5 3.2999,-7.425 10.0346,-22.05 14.966,-32.5 4.9314,-10.45 11.7935,-25.3 15.2491,-33 13.4095,-29.8793 30.1008,-64.9534 31.2656,-65.6993 0.6719,-0.4302 20.3466,-0.6739 43.7216,-0.5415 l 42.5,0.2408 0.3237,3.3884 c 0.6392,6.6915 -0.1909,7.7595 -6.5565,8.4361 -3.172,0.3371 -8.0678,1.3011 -10.8797,2.1422 -11.7236,3.5066 -13.3852,7.7206 -13.3925,33.9648 -0.011,38.6909 4.6399,184.20833 6.0905,190.56853 0.5645,2.475 1.7142,5.5546 2.5548,6.8436 1.9959,3.0603 8.4786,5.8675 15.3597,6.651 10.5133,1.1972 10,0.8109 10,7.5245 v 5.98092 h -56 -56 v -4.42742 c 0,-3.592 0.4972,-4.8186 2.6349,-6.5 1.4491,-1.14 3.5866,-2.0775 4.75,-2.0834 3.0303,-0.015 11.5758,-2.7334 14.3883,-4.5762 5.2383,-3.4323 5.5308,-5.9732 4.8249,-41.91303 -0.3565,-18.15 -0.8508,-36.6 -1.0986,-41 -0.2478,-4.4 -0.6887,-16.775 -0.9797,-27.5 -1.0611,-39.0957 -2.9215,-80.9959 -3.5636,-80.2572 -0.9247,1.0637 -22.278,47.3402 -31.2652,67.7572 -4.1157,9.35 -9.3642,21.05 -11.6633,26 -2.2992,4.95 -8.166,18.225 -13.0375,29.5 -4.8714,11.275 -11.6263,26.575 -15.0109,34 -3.3846,7.425 -8.3723,18.67503 -11.0836,25.00003 -7.7999,18.1953 -10.2128,23.3759 -11.7605,25.25002 -1.1078,1.3415 -2.868,1.7267 -7.5402,1.6503 -3.3522,-0.055 -7.1994,-0.4077 -8.5491,-0.7843 z m 269.7041,0.1518 -48.75,-0.2868 v -5.92932 -5.9292 l 4.75,-0.6109 c 13.8259,-1.7783 19.3522,-4.8128 21.4687,-11.7887 1.6866,-5.5588 1.5839,-204.86043 -0.1104,-214.22293 -1.7342,-9.5832 -8.5448,-14.4802 -20.1583,-14.4944 -2.5025,0 -5.09,-0.5456 -5.75,-1.2056 -0.66,-0.66 -1.2,-3.585 -1.2,-6.5 v -5.3 h 56.5 56.5 v 6 c 0,3.3 -0.2513,6 -0.5584,6 -0.3072,0 -3.7947,0.4944 -7.75,1.0986 -14.9497,2.2838 -18.5067,6.92 -19.7794,25.7807 -1.1499,17.0416 -1.0619,163.1652 0.1085,180.1207 1.9746,28.60653 4.0146,31.74453 22.3266,34.34313 l 8.1527,1.1569 v 6 6.00002 l -8.5,0.027 c -4.675,0.015 -30.4375,-0.1018 -57.25,-0.2595 z m -807.25,-1.4774 c -8.25,-0.5022 -41.2125,-0.6819 -73.25,-0.3994 l -58.25,0.5136 v -5.75232 c 0,-3.1638 0.54,-6.2923 1.2,-6.9523 0.66,-0.66 3.0533,-1.2 5.3185,-1.2 6.2845,0 13.7311,-2.6073 16.9033,-5.9184 6.0541,-6.3191 5.9169,-3.8312 6.3336,-114.84273 0.3336,-88.8782 0.1922,-101.9074 -1.1564,-106.5463 -2.3795,-8.1852 -7.7959,-11.9931 -18.9187,-13.3004 -3.007,-0.3534 -6.0115,-0.9789 -6.6767,-1.39 -0.6691,-0.4135 -1.2751,-3.1499 -1.3565,-6.1248 l -0.1471,-5.3774 57.2945,-0.1245 57.2944,-0.1245 -0.2944,6.1245 -0.2945,6.1245 -7.5,0.8007 c -14.9328,1.5942 -19.3472,5.9674 -20.4295,20.2387 -0.332,4.3783 -1.3196,44.8606 -2.1947,89.9606 -2.413,124.36373 -2.556,116.72063 2.2172,118.53543 3.3371,1.2687 65.8618,1.2207 74.7011,-0.057 8.9086,-1.2882 13.2874,-3.6455 19.5991,-10.5516 4.5924,-5.02483 10.9587,-16.47733 15.9408,-28.67653 1.0827,-2.651 1.3894,-2.75 8.5221,-2.75 9.3334,0 10.1214,0.7814 9.3439,9.2659 -0.596,6.5045 -7.3288,53.56433 -8.2242,57.48415 l -0.5139,2.25 -30.231,-0.1483 c -16.627,-0.082 -36.9809,-0.5591 -45.2309,-1.0613 z m -270.54982,-1.2404 c -0.5226,-0.52252 -0.9502,-3.09422 -0.9502,-5.71482 0,-5.5641 0.8642,-6.2624 8.8651,-7.1638 7.4848,-0.8433 13.5936,-4.0109 15.5057,-8.0403 3.8973,-8.213 4.1304,-14.7125 4.0944,-114.13113 -0.037,-102.5236 -0.248,-107.4778 -4.7837,-112.3373 -2.9569,-3.1681 -7.9418,-5.1161 -14.9726,-5.8509 -7.422,-0.7758 -8.8967,-2.194 -8.5088,-8.1831 l 0.2999,-4.6287 55.4357,-0.2586 c 43.6929,-0.2038 55.60152,0.01 56.21832,1 0.8262,1.3288 0.042,8.752 -1.0541,9.9808 -0.3544,0.3972 -4.14062,1.2422 -8.41382,1.8777 -14.7629,2.1957 -17.6433,6.3081 -18.8032,26.8456 -1.0119,17.9156 -0.9854,166.508 0.033,185.076 0.8445,15.39793 1.8079,18.80073 6.849,24.19053 2.4619,2.6323 4.9176,3.4249 17.23512,5.5628 l 4.5,0.7811 0.2913,5.972 0.2913,5.97212 h -55.59112 c -33.7767,0 -55.964,-0.3728 -56.5413,-0.95 z m -92.7002,-224.64945 c -2.3375,-1.6556 -4.25,-3.4299 -4.25,-3.943 0,-1.1513 10.1656,-18.3677 23.0029,-38.9576 5.3151,-8.525 9.9575,-16.175 10.3163,-17 0.3589,-0.825 1.3843,-2.625 2.2787,-4 0.8944,-1.375 0.1132,-0.7417 -1.7359,1.4075 -1.8491,2.1491 -8.5714,11.5991 -14.9385,21 -18.0889,26.7079 -22.9887,33.5925 -23.9082,33.5925 -2.1913,0 -7.0476,-3.633 -6.6838,-5 0.4007,-1.5051 20.8129,-31.3925 30.3924,-44.5 2.8137,-3.85 8.3836,-11.725 12.3777,-17.5 9.7314,-14.0706 29.4592,-42.0535 38.7747,-55 9.7637,-13.5695 31.9856,-45.9118 33.3235,-48.5 0.9112,-1.7628 0.8613,-1.8221 -0.4203,-0.5 -3.4156,3.5232 -14.1731,17.5278 -23.8125,31 -12.4885,17.4541 -71.6426,97.0262 -87.7215,118 -3.1623,4.125 -6.7068,8.8249 -7.8767,10.4442 -2.0909,2.894 -2.1718,2.9149 -4.748,1.2269 -1.4414,-0.9445 -2.6208,-2.1507 -2.6208,-2.6806 0,-0.5298 5.9977,-8.9569 13.3282,-18.7269 7.3305,-9.77 20.9068,-27.8886 30.1695,-40.2636 9.2628,-12.375 17.7776,-23.6873 18.9219,-25.1385 1.1442,-1.4512 7.6195,-10.2262 14.3895,-19.5 6.7701,-9.2738 17.5777,-24.0615 24.017,-32.8615 6.4394,-8.8 14.3067,-19.7251 17.483,-24.278 3.1763,-4.5529 13.4951,-18.5029 22.9307,-31 9.4356,-12.4971 21.3528,-28.2849 26.4826,-35.0839 9.5969,-12.7196 12.39,-16.9437 10.3844,-15.7041 -2.3066,1.4255 -43.9139,53.0567 -54.1068,67.1421 -2.475,3.4201 -13.275,17.7725 -24,31.8942 -10.725,14.1217 -23.55,31.2286 -28.5,38.0153 -4.95,6.7867 -17.55,23.0385 -28,36.1151 -25.2576,31.6059 -46.5221,58.1236 -49.0563,61.1751 -2.0078,2.4177 -2.1317,2.4369 -5.2667,0.8157 -3.7237,-1.9256 -3.5518,-2.5775 2.5293,-9.5915 2.1458,-2.475 6.0949,-7.425 8.7758,-11 2.6808,-3.575 7.1962,-9.2 10.0343,-12.5 6.6301,-7.7094 48.6378,-60.1814 56.7211,-70.8507 9.3639,-12.3595 36.6844,-46.2827 43.3563,-53.8344 5.125,-5.8008 14.7442,-17.7666 19.3839,-24.1123 0.8235,-1.1264 0.9768,-1.8399 0.3462,-1.6118 -1.2501,0.4521 -10.3557,10.684 -29.3239,32.9508 -14.0961,16.5474 -35.6843,41.4723 -67.5,77.9328 -8.25,9.4545 -18.7426,21.7654 -23.3169,27.3577 -4.5743,5.5924 -11.8756,14.1094 -16.2251,18.9268 -4.3494,4.8174 -9.3818,10.7624 -11.1831,13.211 -1.8012,2.4487 -3.8968,4.4696 -4.6569,4.4911 -2.0202,0.057 -8.1205,-3.9272 -8.1035,-5.2926 0.01,-0.6426 3.2705,-4.8064 7.25,-9.2529 3.9795,-4.4464 17.1355,-19.9432 29.2355,-34.4373 12.1,-14.4941 25.1673,-29.9811 29.0386,-34.4156 7.2754,-8.3339 20.5415,-24.1199 40.4614,-48.147 14.4618,-17.4436 51.0742,-60.3239 60.5497,-70.9156 7.3796,-8.2489 8.949,-10.0775 40.9229,-47.6848 10.4349,-12.2733 23.0617,-27.0402 28.0595,-32.8152 10.5764,-12.221 53.91362,-63.5744 70.11172,-83.0804 6.1291,-7.3808 15.1291,-18.1921 20,-24.025 22.8844,-27.40442 27.1985,-32.64291 31.9512,-38.79714 6.9034,-8.93914 7.8637,-9.66512 10.9346,-8.26594 4.6024,2.09701 5.0137,1.32476 -24.0296,45.12458 -5.5,8.2945 -16.0974,24.4101 -23.5498,35.8124 -7.4523,11.4023 -19.7952,30.1815 -27.4285,41.7315 -32.2392,48.781 -47.13392,71.4102 -62.52982,95 -8.9739,13.75 -22.8808,35.0022 -30.9041,47.2271 -8.0233,12.2249 -18.1878,27.9468 -22.5878,34.9375 -4.4,6.9908 -14.2453,22.4136 -21.8785,34.2729 -7.6332,11.8594 -18.6982,29.2125 -24.589,38.5625 -5.8908,9.35 -16.3302,25.775 -23.1986,36.5 -13.9316,21.7542 -31.7815,49.7295 -38.7518,60.7341 -2.5202,3.9787 -5.0321,7.2212 -5.5821,7.2054 -0.55,-0.016 -2.9125,-1.3833 -5.25,-3.0389 z m -74.7919,-50.3076 c -2.0969,-1.5333 -2.5667,-0.7709 24.8663,-40.3587 4.8535,-7.0039 12.2988,-17.9093 16.5452,-24.2343 21.4186,-31.9032 41.3267,-60.6658 49.2782,-71.1958 4.8754,-6.4563 12.1611,-16.816 16.1905,-23.0215 4.0293,-6.2055 11.3391,-16.9621 16.2439,-23.9037 17.5978,-24.9054 46.4833,-65.5335 52.308,-73.5725 3.2651,-4.5064 9.8922,-13.9564 14.7268,-21 8.5545,-12.463 27.8642,-39.6445 39.645,-55.8065 3.2072,-4.4 12.4124,-17.225 20.4559,-28.5 36.23772,-50.7961 36.47902,-51.10844 37.81282,-48.95032 0.3958,0.64043 -1.8932,4.96707 -5.1839,9.79856 -9.69362,14.23221 -35.19912,50.93756 -42.84002,61.65176 -3.9224,5.5 -11.3786,16.2162 -16.5692,23.8137 -5.1907,7.5975 -15.3679,22.4475 -22.616,33 -7.248,10.5525 -19.7626,28.8613 -27.8101,40.6863 -8.0475,11.825 -20.2518,29.6 -27.1207,39.5 -6.8688,9.9 -16.9505,24.525 -22.4038,32.5 -5.4533,7.975 -12.0381,17.425 -14.6329,21 -2.5947,3.575 -14.2355,20.675 -25.8683,38 -11.6328,17.325 -24.3548,36 -28.2712,41.5 -3.9164,5.5 -12.3859,17.875 -18.821,27.5 -28.6784,42.894 -30.7992,45.3487 -35.9355,41.593 z m 1247.79192,-3.3448 c -2.8875,-0.194 -5.25,-0.5274 -5.25,-0.7408 0,-0.9642 23.5461,-36.3067 25.8213,-38.7574 1.5416,-1.6607 3.5985,-2.75 5.1925,-2.75 3.4473,0 32.9266,5.6746 39.9034,7.6811 l 5.4172,1.558 -2.4172,1.8234 c -3.172,2.3928 -58.8249,30.6013 -61.4172,31.1303 -1.1,0.2244 -4.3625,0.2494 -7.25,0.055 z m -1266.19202,-10.1696 -2.442,-1.8769 14.6616,-29.3508 c 8.0639,-16.143 16.694,-33.1759 19.1781,-37.8509 2.484,-4.675 8.0102,-15.7003 12.2804,-24.5007 7.9305,-16.3441 26.0708,-51.9193 53.2857,-104.4993 8.3979,-16.225 21.8799,-42.325 29.9599,-58 21.6704,-42.04 29.5747,-57.1926 36.5151,-70 3.4275,-6.325 9.243,-17.2375 12.9233,-24.25 5.0734,-9.6669 7.1616,-12.75 8.6357,-12.75 3.1031,0 2.3428,2.5995 -4.68,16 -3.6029,6.875 -29.2868,57.7085 -57.0752,112.9634 -27.7884,55.2549 -51.5452,101.8299 -52.7927,103.5 -1.2475,1.6701 -3.2471,5.8367 -4.4434,9.259 -1.1963,3.4223 -11.2817,24.3473 -22.4118,46.5 -11.1302,22.1527 -24.1508,48.4901 -28.9347,58.5276 -9.2528,19.4142 -9.8214,20.0475 -14.66,16.3286 z m -22.5623,-15.3287 -2.6159,-2.25 2.9551,-8.5 c 2.8685,-8.2506 4.2161,-12.6253 9.7035,-31.4999 1.4392,-4.95 3.0137,-10.125 3.4989,-11.5 0.4853,-1.375 2.7239,-8.8 4.9747,-16.5 2.2508,-7.7 5.1187,-16.925 6.3732,-20.5 2.4862,-7.0851 6.0335,-18.4508 10.1434,-32.5 1.4481,-4.95 5.4871,-18 8.9756,-29 3.4886,-11 7.7608,-24.725 9.4939,-30.5 6.2769,-20.9158 10.1965,-33.7016 13.4886,-44 1.846,-5.775 6.3585,-20.4 10.0276,-32.5 15.9523,-52.6076 16.0787,-52.9719 18.5176,-53.3382 2.0914,-0.314 2.2065,-0.065 1.6146,3.5 -0.3506,2.111 -4.0509,15.3132 -8.223,29.3382 -4.1722,14.025 -10.9581,37.2 -15.0799,51.5 -9.5547,33.1489 -9.4944,32.9461 -19.3233,65 -4.5536,14.85 -8.6984,28.8 -9.2107,31 -0.5123,2.2 -3.1208,10.75 -5.7968,19 -2.676,8.25 -6.4349,20.4 -8.3531,27 -3.4161,11.7533 -9.2823,31.0652 -16.0994,53 -1.8803,6.05 -4.871,16.5125 -6.6461,23.25 -2.0164,7.6534 -3.7105,12.25 -4.515,12.25 -0.7082,0 -2.4648,-1.0125 -3.9035,-2.2501 z m -26.7457,-20.3699 c -3.3337,-1.7503 -3.498,-4.4136 -1.2114,-19.6366 0.8463,-5.6339 3.548,-30.2684 6.0038,-54.7434 2.4558,-24.475 5.3579,-51.7 6.4492,-60.5 1.0913,-8.8 4.0047,-36.025 6.4742,-60.5 2.4695,-24.475 4.789,-47.3125 5.1545,-50.75 0.5514,-5.1851 0.9811,-6.25 2.5221,-6.25 3.0699,0 3.4786,-5.5639 -8.631,117.5 -1.4071,14.3 -3.417,33.425 -4.4664,42.5 -3.5216,30.4532 -4.9516,44.3619 -7.0941,69 -1.1718,13.475 -2.2026,24.5729 -2.2907,24.6619 -0.088,0.089 -1.3977,-0.4878 -2.9102,-1.2819 z m -41.5041,-27.5837 c -0.5934,-0.7151 -1.5979,-8.4993 -2.232,-17.2982 -0.6342,-8.799 -1.7983,-22.2981 -2.5869,-29.9981 -0.7886,-7.7 -1.9147,-19.85 -2.5026,-27 -0.5878,-7.15 -2.8363,-31.45 -4.9967,-54 -5.5004,-57.4135 -5.5308,-57.8672 -3.8328,-57.3043 1.4795,0.4904 4.2018,22.2636 8.7905,70.3043 1.2083,12.65 2.611,24.8177 3.1171,27.0395 0.9367,4.1115 7.281,62.5763 8.5685,78.9605 0.3889,4.95 0.7571,9.225 0.8181,9.5 0.2574,1.1608 -4.1558,0.986 -5.1432,-0.2037 z m -47.6847,-31.7287 c -1.6945,-1.8724 -12.5612,-33.9319 -12.5612,-37.0587 0,-0.8986 -1.3696,-5.6557 -3.0436,-10.5713 -4.9559,-14.5535 -16.1016,-51.6257 -15.6553,-52.072 0.4658,-0.4659 13.1687,37.3785 17.1638,51.1344 1.4377,4.95 3.1209,9.9 3.7406,11 0.6197,1.1 1.8993,4.475 2.8434,7.5 0.9442,3.025 3.771,11.2254 6.2818,18.2231 4.4198,12.3181 4.7778,15.7643 1.2305,11.8445 z"
       id="path1" />
  </g>
</svg>
